# xmcd
#
# Track frame offsets: 
#        150
#        18692
#        35229
#        59313
#        80575
#        98769
#        122388
#        153028
#        180578
#
# Disc length: 2649 seconds
#
# Revision: 0
# Processed by: cddbd v1.5.2PL0 Copyright (c) Steve Scherf et al.
# Submitted via: ExactAudioCopy v0.99pb5
#
DISCID=690a5709
DTITLE=Boogie Patrol - Boogie Patrol Alive
DYEAR=2016
DGENRE=Modern Electric Blues
TTITLE0=Mainstay Woman
TTITLE1=Foolish Mind
TTITLE2=Players Blues
TTITLE3=Hard To Tell You
TTITLE4=Easy To See
TTITLE5=Taking Time
TTITLE6=Soul Searching
TTITLE7=Got One On Ya
TTITLE8=House Don't Rock
EXTD=
EXTT0=
EXTT1=
EXTT2=
EXTT3=
EXTT4=
EXTT5=
EXTT6=
EXTT7=
EXTT8=
PLAYORDER=
